<svg width="512" height="512" viewBox="0 0 512 512" fill="none" xmlns="http://www.w3.org/2000/svg">
<path fill-rule="evenodd" clip-rule="evenodd" d="M256.5 490C386.011 490 491 385.011 491 255.5C491 125.989 386.011 21 256.5 21C126.989 21 22 125.989 22 255.5C22 385.011 126.989 490 256.5 490ZM199.515 212.308C201.595 206.77 207.753 200.601 213.308 198.515L353.778 145.752C364.808 141.609 370.398 147.175 366.248 158.222L313.485 298.692C311.405 304.23 305.247 310.399 299.692 312.485L159.222 365.248C148.192 369.391 142.602 363.825 146.752 352.778L199.515 212.308ZM256.5 276.818C268.274 276.818 277.818 267.274 277.818 255.5C277.818 243.726 268.274 234.182 256.5 234.182C244.726 234.182 235.182 243.726 235.182 255.5C235.182 267.274 244.726 276.818 256.5 276.818Z" fill="white"/>
</svg>
