<svg width="512" height="512" viewBox="0 0 512 512" fill="none" xmlns="http://www.w3.org/2000/svg">
<g opacity="0.3">
<path d="M476.5 255.5C476.5 377.003 378.003 475.5 256.5 475.5C134.997 475.5 36.5 377.003 36.5 255.5C36.5 133.997 134.997 35.5 256.5 35.5C378.003 35.5 476.5 133.997 476.5 255.5ZM208.21 184.941C202.967 186.91 198.348 190.369 194.852 193.867C191.357 197.364 187.905 201.979 185.941 207.21L133.178 347.679C130.524 354.746 128.525 366.457 137.048 374.969C145.563 383.473 157.264 381.473 164.321 378.822L304.79 326.059C310.034 324.09 314.652 320.631 318.148 317.133C321.643 313.636 325.095 309.021 327.059 303.79L379.822 163.321C382.476 156.254 384.475 144.543 375.952 136.031C367.437 127.527 355.736 129.527 348.679 132.178L208.21 184.941ZM263.318 255.5C263.318 259.266 260.266 262.318 256.5 262.318C252.734 262.318 249.682 259.266 249.682 255.5C249.682 251.734 252.734 248.682 256.5 248.682C260.266 248.682 263.318 251.734 263.318 255.5Z" stroke="white" stroke-width="29"/>
</g>
</svg>
