<svg width="512" height="512" viewBox="0 0 512 512" fill="none" xmlns="http://www.w3.org/2000/svg">
<g opacity="0.3">
<path d="M239.904 450.364L239.885 450.353L239.865 450.341C211.011 433.38 161.069 400.714 117.871 355.986C74.5154 311.095 39.5212 255.701 37.1032 193.15C35.9211 161.411 44.9276 130.408 62.2548 105.696C79.5358 81.0504 103.837 64.412 130.586 58.2529C137.745 56.7613 145.004 56.0081 152.274 56C179.964 55.9928 206.977 67.4384 227.999 88.6302C235.493 96.3145 245.637 100.878 256.499 100.878C267.361 100.878 277.505 96.3144 284.999 88.63C306.021 67.4371 333.034 55.9914 360.725 56C367.996 56.0084 375.255 56.7616 382.415 58.253C409.163 64.4122 433.464 81.0506 450.745 105.696C468.071 130.406 477.078 161.407 475.897 193.144C473.48 255.698 438.485 311.094 395.128 355.986C351.93 400.714 301.988 433.38 273.135 450.341L273.115 450.353L273.096 450.364C267.882 453.45 262.189 455 256.5 455C250.811 455 245.118 453.45 239.904 450.364Z" stroke="white" stroke-width="30"/>
</g>
</svg>
