<svg width="512" height="512" viewBox="0 0 512 512" fill="none" xmlns="http://www.w3.org/2000/svg">
<path d="M360.736 42C328.789 41.9881 297.979 55.2183 274.298 79.118C269.452 84.1075 263.097 86.8783 256.499 86.8783C249.901 86.8783 243.546 84.1075 238.7 79.118C215.018 55.2199 184.21 41.99 152.264 42C143.913 42.0088 135.58 42.8793 127.373 44.6003C96.6942 51.622 69.258 70.5808 49.9731 98.0846C30.6882 125.588 20.8128 159.843 22.114 194.719C27.3518 330.412 173.407 429.675 232.264 464.273C239.727 468.69 248.049 471 256.5 471C264.951 471 273.273 468.69 280.736 464.273C339.593 429.675 485.647 330.412 490.886 194.719C492.187 159.843 482.312 125.588 463.027 98.0846C443.742 70.5808 416.306 51.622 385.627 44.6003C377.42 42.8797 369.087 42.0092 360.736 42Z" fill="white"/>
</svg>
