<svg id="pausa" xmlns="http://www.w3.org/2000/svg" width="34.376" height="34.376" viewBox="0 0 34.376 34.376">
  <g id="Group_3778" data-name="Group 3778" transform="translate(0 0)">
    <g id="Group_3777" data-name="Group 3777">
      <path id="Path_299" data-name="Path 299" d="M29.342,5.034A17.188,17.188,0,0,0,5.034,29.342,17.188,17.188,0,0,0,29.342,5.034ZM17.188,32.362A15.174,15.174,0,1,1,32.362,17.188,15.191,15.191,0,0,1,17.188,32.362Z" transform="translate(0 0)"/>
    </g>
  </g>
  <g id="Group_3780" data-name="Group 3780" transform="translate(19.417 9.247)">
    <g id="Group_3779" data-name="Group 3779">
      <path id="Path_300" data-name="Path 300" d="M290.206,137.723a1.007,1.007,0,0,0-1.007,1.007V152.6a1.007,1.007,0,1,0,2.014,0V138.73A1.007,1.007,0,0,0,290.206,137.723Z" transform="translate(-289.199 -137.723)"/>
    </g>
  </g>
  <g id="Group_3782" data-name="Group 3782" transform="translate(12.945 9.247)">
    <g id="Group_3781" data-name="Group 3781">
      <path id="Path_301" data-name="Path 301" d="M193.806,137.723a1.007,1.007,0,0,0-1.007,1.007V152.6a1.007,1.007,0,1,0,2.014,0V138.73A1.007,1.007,0,0,0,193.806,137.723Z" transform="translate(-192.799 -137.723)"/>
    </g>
  </g>
</svg>
