<svg width="512" height="512" viewBox="0 0 512 512" fill="none" xmlns="http://www.w3.org/2000/svg">
<path fill-rule="evenodd" clip-rule="evenodd" d="M355.184 491.792H438.672V491.808C451.123 491.795 463.06 486.844 471.864 478.04C480.668 469.236 485.619 457.299 485.632 444.848V240.08C485.636 233.305 484.174 226.61 481.346 220.454C478.518 214.297 474.391 208.826 469.248 204.416L281.392 43.408C272.902 36.0626 262.051 32.0201 250.824 32.0201C239.597 32.0201 228.746 36.0626 220.256 43.408L32.4 204.384C21.984 213.328 16 226.336 16 240.064V444.832C16.0169 457.281 20.9699 469.216 29.773 478.019C38.576 486.822 50.5106 491.775 62.96 491.792H146.464C158.913 491.775 170.848 486.822 179.651 478.019C188.454 469.216 193.407 457.281 193.424 444.832V366.56C193.424 362.407 195.072 358.424 198.005 355.484C200.939 352.544 204.919 350.888 209.072 350.88H292.56C296.716 350.884 300.7 352.538 303.637 355.478C306.574 358.418 308.224 362.404 308.224 366.56V444.832C308.237 457.283 313.188 469.22 321.992 478.024C330.796 486.828 342.733 491.779 355.184 491.792Z" fill="white"/>
</svg>
