<svg width="512" height="512" viewBox="0 0 512 512" fill="none" xmlns="http://www.w3.org/2000/svg">
<g opacity="0.3">
<path d="M209.072 319.584H292.56C305.013 319.597 316.953 324.551 325.757 333.358C334.562 342.165 339.512 354.107 339.52 366.56V444.832C339.52 453.456 346.56 460.48 355.184 460.48H438.672C442.82 460.472 446.795 458.82 449.727 455.887C452.66 452.955 454.312 448.98 454.32 444.832V240.064C454.323 237.806 453.837 235.574 452.895 233.522C451.953 231.47 450.578 229.646 448.864 228.176L261.008 67.168C258.18 64.7139 254.561 63.3628 250.816 63.3628C247.071 63.3628 243.452 64.7139 240.624 67.168L52.784 228.16C51.0654 229.627 49.6859 231.45 48.7411 233.502C47.7963 235.555 47.3087 237.788 47.312 240.048V444.816C47.3205 448.964 48.9718 452.939 51.9045 455.871C54.8373 458.804 58.8125 460.456 62.96 460.464H146.464C150.612 460.456 154.587 458.804 157.519 455.871C160.452 452.939 162.104 448.964 162.112 444.816V366.56C162.125 354.108 167.076 342.169 175.879 333.363C184.683 324.556 196.62 319.601 209.072 319.584ZM438.672 491.792H355.184C342.733 491.779 330.796 486.828 321.992 478.024C313.188 469.22 308.237 457.283 308.224 444.832V366.56C308.224 362.404 306.574 358.418 303.637 355.478C300.7 352.538 296.716 350.884 292.56 350.88H209.072C204.919 350.888 200.939 352.544 198.005 355.484C195.072 358.424 193.424 362.407 193.424 366.56V444.832C193.407 457.281 188.454 469.216 179.651 478.019C170.848 486.822 158.913 491.775 146.464 491.792H62.96C50.5106 491.775 38.576 486.822 29.773 478.019C20.9699 469.216 16.0169 457.281 16 444.832V240.064C16 226.336 21.984 213.328 32.4 204.384L220.256 43.408C228.746 36.0626 239.597 32.0201 250.824 32.0201C262.051 32.0201 272.902 36.0626 281.392 43.408L469.248 204.416C474.391 208.826 478.518 214.297 481.346 220.454C484.174 226.61 485.636 233.305 485.632 240.08V444.848C485.619 457.299 480.668 469.236 471.864 478.04C463.06 486.844 451.123 491.795 438.672 491.808V491.792Z" fill="white"/>
</g>
</svg>
