<svg width="134" height="134" viewBox="0 0 134 134" fill="none" xmlns="http://www.w3.org/2000/svg">
<path d="M50.25 24.9573L61.3051 11.1667" stroke="#F4B45D" stroke-width="8.375" stroke-linecap="round" stroke-linejoin="round"/>
<path d="M62.0551 39.7907L51 26" stroke="#F4B45D" stroke-width="8.375" stroke-linecap="round" stroke-linejoin="round"/>
<path d="M27.4141 43.5499C21.2166 51.8133 17.364 62.0308 17.364 73.1974C17.364 100.612 39.5857 122.833 66.9999 122.833C94.4141 122.833 116.636 100.612 116.636 73.1974C116.636 45.7833 94.4141 23.5615 66.9999 23.5615C63.2032 23.5615 59.5182 24.0643 55.9448 24.9018" stroke="#F4B45D" stroke-width="8.375" stroke-linecap="round" stroke-linejoin="round"/>
<path d="M42.35 66.45V58.5H56.2V95H47.3V66.45H42.35ZM62.0488 76.25C62.0488 70.5167 63.1488 66 65.3488 62.7C67.5822 59.4 71.1655 57.75 76.0988 57.75C81.0322 57.75 84.5988 59.4 86.7988 62.7C89.0322 66 90.1488 70.5167 90.1488 76.25C90.1488 82.05 89.0322 86.6 86.7988 89.9C84.5988 93.2 81.0322 94.85 76.0988 94.85C71.1655 94.85 67.5822 93.2 65.3488 89.9C63.1488 86.6 62.0488 82.05 62.0488 76.25ZM81.7488 76.25C81.7488 72.8833 81.3822 70.3 80.6488 68.5C79.9155 66.6667 78.3988 65.75 76.0988 65.75C73.7988 65.75 72.2822 66.6667 71.5488 68.5C70.8155 70.3 70.4488 72.8833 70.4488 76.25C70.4488 78.5167 70.5822 80.4 70.8488 81.9C71.1155 83.3667 71.6488 84.5667 72.4488 85.5C73.2822 86.4 74.4988 86.85 76.0988 86.85C77.6988 86.85 78.8988 86.4 79.6988 85.5C80.5322 84.5667 81.0822 83.3667 81.3488 81.9C81.6155 80.4 81.7488 78.5167 81.7488 76.25Z" fill="#F4B45D"/>
</svg>
