<svg width="12" height="14" viewBox="0 0 12 14" fill="none" xmlns="http://www.w3.org/2000/svg">
<path opacity="0.3" d="M6 7.7C5.77166 7.69751 5.54799 7.76037 5.35908 7.88011C5.17018 7.99986 5.02511 8.17074 4.94341 8.36976C4.86171 8.56879 4.8473 8.78639 4.90211 8.99329C4.95693 9.20019 5.07834 9.38645 5.25 9.527V10.5C5.25 10.6857 5.32902 10.8637 5.46967 10.995C5.61032 11.1263 5.80109 11.2 6 11.2C6.19891 11.2 6.38968 11.1263 6.53033 10.995C6.67098 10.8637 6.75 10.6857 6.75 10.5V9.527C6.92166 9.38645 7.04307 9.20019 7.09789 8.99329C7.1527 8.78639 7.13829 8.56879 7.05659 8.36976C6.97489 8.17074 6.82982 7.99986 6.64092 7.88011C6.45201 7.76037 6.22834 7.69751 6 7.7ZM9.75 4.9V3.5C9.75 2.57174 9.35491 1.6815 8.65165 1.02513C7.94839 0.368749 6.99456 0 6 0C5.00544 0 4.05161 0.368749 3.34835 1.02513C2.64509 1.6815 2.25 2.57174 2.25 3.5V4.9C1.65326 4.9 1.08097 5.12125 0.65901 5.51508C0.237053 5.9089 0 6.44305 0 7V11.9C0 12.457 0.237053 12.9911 0.65901 13.3849C1.08097 13.7788 1.65326 14 2.25 14H9.75C10.3467 14 10.919 13.7788 11.341 13.3849C11.7629 12.9911 12 12.457 12 11.9V7C12 6.44305 11.7629 5.9089 11.341 5.51508C10.919 5.12125 10.3467 4.9 9.75 4.9ZM3.75 3.5C3.75 2.94305 3.98705 2.4089 4.40901 2.01508C4.83097 1.62125 5.40326 1.4 6 1.4C6.59674 1.4 7.16903 1.62125 7.59099 2.01508C8.01295 2.4089 8.25 2.94305 8.25 3.5V4.9H3.75V3.5ZM10.5 11.9C10.5 12.0857 10.421 12.2637 10.2803 12.395C10.1397 12.5263 9.94891 12.6 9.75 12.6H2.25C2.05109 12.6 1.86032 12.5263 1.71967 12.395C1.57902 12.2637 1.5 12.0857 1.5 11.9V7C1.5 6.81435 1.57902 6.6363 1.71967 6.50503C1.86032 6.37375 2.05109 6.3 2.25 6.3H9.75C9.94891 6.3 10.1397 6.37375 10.2803 6.50503C10.421 6.6363 10.5 6.81435 10.5 7V11.9Z" fill="black"/>
</svg>
