<svg width="1101" height="1101" viewBox="0 0 1101 1101" fill="none" xmlns="http://www.w3.org/2000/svg">
<rect width="1101" height="1101" rx="343" fill="#282828"/>
<path fill-rule="evenodd" clip-rule="evenodd" d="M473.843 806.449C434.267 806.449 402.601 774.773 402.601 733.185C402.601 691.597 434.267 659.912 473.843 659.912C513.43 659.912 545.095 691.597 545.095 733.185C545.095 774.773 513.43 806.459 473.843 806.459M644.052 335.153C618.323 309.407 596.554 283.662 582.707 259.903V257.916C582.636 256.889 582.196 255.923 581.468 255.196C580.739 254.469 579.773 254.031 578.746 253.963L574.765 250H560.928C558.953 250 558.953 250 556.977 251.977C554.992 251.977 553.017 253.963 553.017 253.963L549.056 257.916C549.056 259.903 547.081 259.903 547.081 261.879V648.032C527.287 632.19 503.543 622.287 475.839 622.287C414.473 622.287 365 671.801 365 735.162C365 796.556 414.473 848.037 475.829 848.037C537.174 848.037 586.647 798.532 586.647 735.162V329.213C596.544 341.093 606.441 350.985 616.327 362.875C655.914 406.44 699.451 450.004 693.515 493.569C691.54 521.291 667.786 549.023 628.209 578.722C618.313 584.662 616.337 596.541 624.249 606.444C628.209 612.384 634.145 614.371 640.091 614.371C644.042 614.371 648.003 612.384 651.953 610.407C703.412 574.759 729.142 537.134 733.102 497.532C737.053 434.162 689.555 384.657 644.042 335.153" fill="white"/>
</svg>
