<svg width="26" height="31" viewBox="0 0 26 31" fill="none" xmlns="http://www.w3.org/2000/svg">
<path opacity="0.3" d="M20.54 14.3374C17.57 14.3374 15.15 16.7475 15.15 19.7174C15.15 22.6875 17.57 25.0974 20.54 25.0974C23.4 25.0974 25.73 22.8474 25.89 20.0174C25.91 19.9275 25.92 1.49748 25.92 1.49748C25.92 1.01744 25.7 0.567487 25.31 0.287457C24.93 0.00748673 24.43 -0.0725333 23.98 0.0674867L8.82 4.77745C8.18999 4.97746 7.77001 5.55748 7.77001 6.21745V20.8075C7.04003 20.4475 6.24004 20.2275 5.38 20.2275C2.41003 20.2275 0 22.6474 0 25.6175C0 28.5774 2.41003 30.9975 5.38 30.9975C8.25 30.9975 10.57 28.7375 10.73 25.9174C10.75 25.8175 10.77 13.1875 10.77 13.1875L22.92 9.40745V14.9175C22.2 14.5575 21.4 14.3374 20.54 14.3374Z" fill="black"/>
</svg>
