<svg width="134" height="134" viewBox="0 0 134 134" fill="none" xmlns="http://www.w3.org/2000/svg">
<path d="M83.7499 24.9573L72.6948 11.1667" stroke="#F4B45D" stroke-width="8.375" stroke-linecap="round" stroke-linejoin="round"/>
<path d="M71.9448 39.7907L82.9999 26" stroke="#F4B45D" stroke-width="8.375" stroke-linecap="round" stroke-linejoin="round"/>
<path d="M106.586 43.5499C112.783 51.8133 116.636 62.0308 116.636 73.1974C116.636 100.612 94.4142 122.833 67 122.833C39.5858 122.833 17.3641 100.612 17.3641 73.1974C17.3641 45.7833 39.5858 23.5615 67 23.5615C70.7967 23.5615 74.4817 24.0643 78.0551 24.9018" stroke="#F4B45D" stroke-width="8.375" stroke-linecap="round" stroke-linejoin="round"/>
<path d="M42.35 66.45V58.5H56.2V95H47.3V66.45H42.35ZM62.0488 76.25C62.0488 70.5167 63.1488 66 65.3488 62.7C67.5822 59.4 71.1655 57.75 76.0988 57.75C81.0322 57.75 84.5988 59.4 86.7988 62.7C89.0322 66 90.1488 70.5167 90.1488 76.25C90.1488 82.05 89.0322 86.6 86.7988 89.9C84.5988 93.2 81.0322 94.85 76.0988 94.85C71.1655 94.85 67.5822 93.2 65.3488 89.9C63.1488 86.6 62.0488 82.05 62.0488 76.25ZM81.7488 76.25C81.7488 72.8833 81.3822 70.3 80.6488 68.5C79.9155 66.6667 78.3988 65.75 76.0988 65.75C73.7988 65.75 72.2822 66.6667 71.5488 68.5C70.8155 70.3 70.4488 72.8833 70.4488 76.25C70.4488 78.5167 70.5822 80.4 70.8488 81.9C71.1155 83.3667 71.6488 84.5667 72.4488 85.5C73.2822 86.4 74.4988 86.85 76.0988 86.85C77.6988 86.85 78.8988 86.4 79.6988 85.5C80.5322 84.5667 81.0822 83.3667 81.3488 81.9C81.6155 80.4 81.7488 78.5167 81.7488 76.25Z" fill="#F4B45D"/>
</svg>
