<svg width="512" height="512" viewBox="0 0 512 512" fill="none" xmlns="http://www.w3.org/2000/svg">
<g opacity="0.3">
<path d="M405.982 383.355C399.733 377.107 389.603 377.106 383.354 383.355C377.106 389.603 377.106 399.734 383.354 405.982L405.982 383.355ZM468.685 491.315C474.934 497.563 485.064 497.563 491.313 491.315C497.561 485.066 497.561 474.936 491.313 468.687L468.685 491.315ZM383.354 405.982L468.685 491.315L491.313 468.687L405.982 383.355L383.354 405.982ZM224 400C126.798 400 48 321.202 48 224H16C16 338.875 109.125 432 224 432V400ZM400 224C400 321.202 321.202 400 224 400V432C338.875 432 432 338.875 432 224H400ZM224 48C321.202 48 400 126.798 400 224H432C432 109.125 338.875 16 224 16V48ZM224 16C109.125 16 16 109.125 16 224H48C48 126.798 126.798 48 224 48V16Z" fill="white"/>
</g>
</svg>
